<svg width="82" height="78" viewBox="0 0 82 78" fill="none" xmlns="http://www.w3.org/2000/svg">
<g id="mdi:steam">
<path id="Vector" d="M40.9191 6.48389C45.3512 6.48389 49.7399 7.31375 53.8346 8.92609C57.9294 10.5384 61.65 12.9017 64.7839 15.8809C67.9179 18.8601 70.4039 22.3969 72.1 26.2895C73.7961 30.182 74.6691 34.354 74.6691 38.5672C74.6691 47.0763 71.1133 55.2368 64.7839 61.2536C58.4546 67.2704 49.8701 70.6506 40.9191 70.6506C25.3941 70.6506 12.4003 60.7689 8.38407 47.326L21.3103 52.3951C21.7532 54.4503 22.9286 56.2972 24.638 57.6241C26.3473 58.9509 28.486 59.6764 30.6928 59.6781C35.9578 59.6781 40.2441 55.6035 40.2441 50.5985V50.1814L51.7191 42.3851H51.9891C59.0091 42.3851 64.7128 36.9631 64.7128 30.2897C64.7128 23.6164 59.0091 18.1943 51.9891 18.1943C44.9691 18.1943 39.2316 23.6164 39.2316 30.2897V30.4501L31.2328 41.551L30.6928 41.5189C28.7016 41.5189 26.8453 42.0964 25.3266 43.091L7.16907 36.0006C8.62032 19.4776 23.1328 6.48389 40.9191 6.48389ZM28.3641 55.1543C31.0641 56.2131 34.1691 55.026 35.2828 52.4593C36.3966 49.8926 35.1141 46.9731 32.4816 45.9143L28.1616 44.2139C29.8153 43.6364 31.6716 43.6043 33.4266 44.3101C35.2153 44.9839 36.5991 46.2993 37.3078 47.9997C38.0503 49.6681 38.0503 51.5289 37.3078 53.1972C35.8566 56.6622 31.5703 58.3306 27.9253 56.8868C26.2378 56.2131 24.9553 54.9939 24.2466 53.5501L28.3641 55.1543ZM60.4941 30.2897C60.4941 34.7493 56.6803 38.3747 51.9891 38.3747C49.7393 38.3662 47.5846 37.5107 45.9969 35.9954C44.4092 34.4801 43.5178 32.4284 43.5178 30.2897C43.5134 29.231 43.7294 28.1819 44.1536 27.203C44.5777 26.224 45.2015 25.3346 45.989 24.586C46.7766 23.8374 47.7122 23.2443 48.742 22.8412C49.7718 22.438 50.8754 22.2326 51.9891 22.2368C54.2389 22.2368 56.3971 23.0842 57.9911 24.5935C59.5851 26.1028 60.4851 28.151 60.4941 30.2897ZM45.6441 30.2897C45.6441 33.6264 48.4791 36.3535 52.0228 36.3535C55.5328 36.3535 58.3678 33.6264 58.3678 30.2897C58.3678 26.9531 55.5328 24.226 52.0228 24.226C48.4791 24.226 45.6441 26.9531 45.6441 30.2897Z" fill="#B22DFF"/>
</g>
</svg>
